<?xml version="1.0" encoding="UTF-8" standalone="no"?>
<!-- Created with Inkscape (http://www.inkscape.org/) -->

<svg
   xmlns:dc="http://purl.org/dc/elements/1.1/"
   xmlns:cc="http://creativecommons.org/ns#"
   xmlns:rdf="http://www.w3.org/1999/02/22-rdf-syntax-ns#"
   xmlns:svg="http://www.w3.org/2000/svg"
   xmlns="http://www.w3.org/2000/svg"
   xmlns:sodipodi="http://sodipodi.sourceforge.net/DTD/sodipodi-0.dtd"
   xmlns:inkscape="http://www.inkscape.org/namespaces/inkscape"
   width="217.54842"
   height="422.72357"
   id="svg2"
   version="1.1"
   inkscape:version="0.48.3.1 r9886"
   sodipodi:docname="05_prepetition.svg">
  <sodipodi:namedview
     id="base"
     pagecolor="#ffffff"
     bordercolor="#666666"
     borderopacity="1.0"
     inkscape:pageopacity="0.0"
     inkscape:pageshadow="2"
     inkscape:zoom="2.8"
     inkscape:cx="43.235171"
     inkscape:cy="72.170392"
     inkscape:document-units="px"
     inkscape:current-layer="layer1"
     showgrid="true"
     inkscape:window-width="1280"
     inkscape:window-height="750"
     inkscape:window-x="0"
     inkscape:window-y="0"
     inkscape:window-maximized="1"
     fit-margin-top="10"
     fit-margin-left="10"
     fit-margin-right="10"
     fit-margin-bottom="10">
    <inkscape:grid
       type="xygrid"
       id="grid2985"
       empspacing="5"
       visible="true"
       enabled="false"
       snapvisiblegridlinesonly="false"
       spacingx="5px"
       spacingy="5px"
       originx="-61.010757px"
       originy="240.67363px" />
  </sodipodi:namedview>
  <defs
     id="defs4">
    <marker
       style="overflow:visible"
       id="Arrow2Mstart"
       refX="0"
       refY="0"
       orient="auto"
       inkscape:stockid="Arrow2Mstart">
      <path
         transform="scale(0.6,0.6)"
         d="M 8.7185878,4.0337352 -2.2072895,0.01601326 8.7185884,-4.0017078 c -1.7454984,2.3720609 -1.7354408,5.6174519 -6e-7,8.035443 z"
         style="fill-rule:evenodd;stroke-width:0.625;stroke-linejoin:round"
         id="path4580"
         inkscape:connector-curvature="0" />
    </marker>
    <marker
       inkscape:stockid="Arrow1Mend"
       orient="auto"
       refY="0"
       refX="0"
       id="Arrow1Mend"
       style="overflow:visible">
      <path
         inkscape:connector-curvature="0"
         id="path3769"
         d="M 0,0 5,-5 -12.5,0 5,5 0,0 z"
         style="fill-rule:evenodd;stroke:#000000;stroke-width:1pt;marker-start:none"
         transform="matrix(-0.4,0,0,-0.4,-4,0)" />
    </marker>
    <marker
       inkscape:stockid="Arrow1Lend"
       orient="auto"
       refY="0"
       refX="0"
       id="Arrow1Lend"
       style="overflow:visible">
      <path
         inkscape:connector-curvature="0"
         id="path3763"
         d="M 0,0 5,-5 -12.5,0 5,5 0,0 z"
         style="fill-rule:evenodd;stroke:#000000;stroke-width:1pt;marker-start:none"
         transform="matrix(-0.8,0,0,-0.8,-10,0)" />
    </marker>
    <marker
       inkscape:stockid="Arrow2Mend"
       orient="auto"
       refY="0"
       refX="0"
       id="Arrow2Mend"
       style="overflow:visible">
      <path
         inkscape:connector-curvature="0"
         id="path3787"
         style="font-size:12px;fill-rule:evenodd;stroke-width:0.625;stroke-linejoin:round"
         d="M 8.7185878,4.0337352 -2.2072895,0.01601326 8.7185884,-4.0017078 c -1.7454984,2.3720609 -1.7354408,5.6174519 -6e-7,8.035443 z"
         transform="scale(-0.6,-0.6)" />
    </marker>
    <marker
       inkscape:stockid="Arrow2Mendv"
       orient="auto"
       refY="0"
       refX="0"
       id="Arrow2Mendv"
       style="overflow:visible">
      <path
         inkscape:connector-curvature="0"
         id="path6170"
         style="font-size:12px;fill:#000df0;fill-rule:evenodd;stroke:#000df0;stroke-width:0.625;stroke-linejoin:round"
         d="M 8.7185878,4.0337352 -2.2072895,0.01601326 8.7185884,-4.0017078 c -1.7454984,2.3720609 -1.7354408,5.6174519 -6e-7,8.035443 z"
         transform="scale(-0.6,-0.6)" />
    </marker>
    <marker
       style="overflow:visible"
       id="Arrow2MstartG"
       refX="0"
       refY="0"
       orient="auto"
       inkscape:stockid="Arrow2MstartG">
      <path
         transform="scale(0.6,0.6)"
         d="M 8.7185878,4.0337352 -2.2072895,0.01601326 8.7185884,-4.0017078 c -1.7454984,2.3720609 -1.7354408,5.6174519 -6e-7,8.035443 z"
         style="fill:#000df0;fill-rule:evenodd;stroke:#000df0;stroke-width:0.625;stroke-linejoin:round"
         id="path5019"
         inkscape:connector-curvature="0" />
    </marker>
  </defs>
  <metadata
     id="metadata7">
    <rdf:RDF>
      <cc:Work
         rdf:about="">
        <dc:format>image/svg+xml</dc:format>
        <dc:type
           rdf:resource="http://purl.org/dc/dcmitype/StillImage" />
        <dc:title />
      </cc:Work>
    </rdf:RDF>
  </metadata>
  <g
     transform="translate(1.6237455,-187.06866)"
     inkscape:label="Ebene 1"
     inkscape:groupmode="layer"
     id="layer1">
    <path
       style="fill:none;stroke:#000000;stroke-width:0.66721487;stroke-linecap:butt;stroke-linejoin:miter;stroke-miterlimit:4;stroke-opacity:1;stroke-dasharray:none;marker-end:url(#Arrow1Mend)"
       d="m 148.17576,599.45861 0,-400.48871"
       id="path2987"
       inkscape:connector-curvature="0"
       sodipodi:nodetypes="cc" />
    <path
       sodipodi:type="arc"
       style="fill:#000000;fill-rule:evenodd;stroke:#000000;stroke-width:1px;stroke-linecap:butt;stroke-linejoin:miter;stroke-opacity:1"
       id="path4575"
       sodipodi:cx="45"
       sodipodi:cy="352.36218"
       sodipodi:rx="5"
       sodipodi:ry="5"
       d="m 50,352.36218 c 0,2.76143 -2.238576,5 -5,5 -2.761424,0 -5,-2.23857 -5,-5 0,-2.76142 2.238576,-5 5,-5 2.761424,0 5,2.23858 5,5 z"
       transform="matrix(-0.46683359,0,0,0.46683359,170.09694,141.16236)" />
    <path
       style="fill:none;stroke:#000000;stroke-width:0.66721487;stroke-linecap:butt;stroke-linejoin:miter;stroke-miterlimit:4;stroke-opacity:1;stroke-dasharray:none;marker-start:none;marker-end:url(#Arrow2Mend)"
       d="m 149.339,306.95779 c -13.3443,0 -33.36074,0 -33.36074,-13.3443 0,-13.34429 0,-62.27339 0,-93.41008"
       id="path4577"
       inkscape:connector-curvature="0"
       sodipodi:nodetypes="czc" />
    <path
       style="fill:#000000;fill-rule:evenodd;stroke:#000000;stroke-width:0.46683359px;stroke-linecap:butt;stroke-linejoin:miter;stroke-opacity:1"
       d="m 149.32285,588.97868 c 2.08777,0.27979 0.95473,3.61681 -0.84614,2.62595 -1.44742,-0.66016 -0.71916,-2.90877 0.84614,-2.62595 z"
       id="path5143"
       inkscape:connector-curvature="0" />
    <g
       inkscape:transform-center-y="-2.7"
       inkscape:transform-center-x="2.7000044"
       transform="matrix(-1.3344297,0,0,1.3344297,155.73179,-79.074773)"
       id="g5171">
      <g
         transform="translate(-7.5,-2.5000004)"
         id="g5175">
        <path
           transform="translate(0,6)"
           inkscape:connector-curvature="0"
           id="path5167"
           d="m 10,212.36218 c 5,5 5,5 5,5"
           style="fill:none;stroke:#000000;stroke-width:0.40000001;stroke-linecap:butt;stroke-linejoin:miter;stroke-miterlimit:4;stroke-opacity:1;stroke-dasharray:none" />
        <path
           inkscape:connector-curvature="0"
           id="path5169"
           d="m 10,217.36218 2.5,-2.5 2.5,-2.5"
           style="fill:none;stroke:#000000;stroke-width:0.40000001;stroke-linecap:butt;stroke-linejoin:miter;stroke-miterlimit:4;stroke-opacity:1;stroke-dasharray:none"
           sodipodi:nodetypes="ccc"
           transform="translate(0,6)" />
      </g>
    </g>
    <path
       style="fill:none;stroke:#000000;stroke-width:0.26688594;stroke-linecap:butt;stroke-linejoin:miter;stroke-miterlimit:4;stroke-opacity:1;stroke-dasharray:0.80065782, 0.80065782;stroke-dashoffset:0;marker-end:url(#Arrow2Mend)"
       d="m 149.05965,212.3142 c 27.98597,36.84812 16.70809,63.17507 1.48931,91.20588"
       id="path5221"
       inkscape:connector-curvature="0"
       sodipodi:nodetypes="cc" />
    <path
       inkscape:connector-curvature="0"
       id="path6258"
       d="m 60.168694,552.01 c 40.032896,0 40.032896,0 40.032896,0"
       style="fill:#0000ff;stroke:#000df0;stroke-width:1.33442974px;stroke-linecap:butt;stroke-linejoin:miter;stroke-opacity:1;marker-end:url(#Arrow2Mendv)" />
    <text
       sodipodi:linespacing="125%"
       id="text6385"
       y="205.17949"
       x="177.65161"
       style="font-size:10.67543793px;font-style:normal;font-variant:normal;font-weight:normal;font-stretch:normal;line-height:125%;letter-spacing:0px;word-spacing:0px;fill:#000000;fill-opacity:1;stroke:none;font-family:Verdana;-inkscape-font-specification:Verdana"
       xml:space="preserve"><tspan
         style="fill:#0000ff"
         y="205.17949"
         x="177.65161"
         id="tspan6387"
         sodipodi:role="line">input</tspan></text>
    <text
       xml:space="preserve"
       style="font-size:10.67543793px;font-style:normal;font-variant:normal;font-weight:normal;font-stretch:normal;line-height:125%;letter-spacing:0px;word-spacing:0px;fill:#000000;fill-opacity:1;stroke:none;font-family:Verdana;-inkscape-font-specification:Verdana"
       x="68.585869"
       y="542.97137"
       id="text6389"
       sodipodi:linespacing="125%"><tspan
         sodipodi:role="line"
         id="tspan6391"
         x="68.585869"
         y="542.97137"
         style="fill:#0000ff">output</tspan></text>
    <flowRoot
       style="font-size:8px;font-style:normal;font-variant:normal;font-weight:normal;font-stretch:normal;line-height:125%;letter-spacing:0px;word-spacing:0px;fill:#000000;fill-opacity:1;stroke:none;font-family:Verdana;-inkscape-font-specification:Verdana"
       id="flowRoot6415"
       xml:space="preserve"><flowRegion
         id="flowRegion6417"><rect
           y="263.93811"
           x="130.81476"
           height="21.718279"
           width="14.647212"
           id="rect6419" /></flowRegion><flowPara
         id="flowPara6421" /></flowRoot>    <path
       style="fill:#0000ff;stroke:#000df0;stroke-width:1.33442974px;stroke-linecap:butt;stroke-linejoin:miter;stroke-opacity:1;marker-start:url(#Arrow2MstartG);marker-end:none"
       d="m 165.22456,211.26882 c 40.0329,0 40.0329,0 40.0329,0"
       id="path4362"
       inkscape:connector-curvature="0" />
    <path
       sodipodi:nodetypes="cc"
       inkscape:connector-curvature="0"
       id="path3100"
       d="m 150.17576,598.74432 0,-399.77442"
       style="fill:none;stroke:#000000;stroke-width:0.66721487;stroke-linecap:butt;stroke-linejoin:miter;stroke-miterlimit:4;stroke-opacity:1;stroke-dasharray:none;marker-end:url(#Arrow1Mend)" />
    <path
       sodipodi:nodetypes="czc"
       inkscape:connector-curvature="0"
       id="path3106"
       d="m 150.85423,305.56883 c -13.3443,0 -33.36074,0 -33.36074,-13.3443 0,-13.34429 0,-62.27339 0,-93.41008"
       style="fill:none;stroke:#000000;stroke-width:0.66721487;stroke-linecap:butt;stroke-linejoin:miter;stroke-miterlimit:4;stroke-opacity:1;stroke-dasharray:none;marker-start:none;marker-end:url(#Arrow2Mend)" />
    <path
       sodipodi:nodetypes="cc"
       inkscape:connector-curvature="0"
       id="path3101"
       d="m 26.541924,597.13718 0,-398.16728"
       style="fill:none;stroke:#000000;stroke-width:0.66721487;stroke-linecap:butt;stroke-linejoin:miter;stroke-miterlimit:4;stroke-opacity:1;stroke-dasharray:none;marker-end:url(#Arrow1Mend)" />
    <path
       inkscape:connector-curvature="0"
       id="path3107"
       d="m 25.394834,588.97868 c -2.08777,0.27979 -0.95473,3.61681 0.84614,2.62595 1.44742,-0.66016 0.71916,-2.90877 -0.84614,-2.62595 z"
       style="fill:#000000;fill-rule:evenodd;stroke:#000000;stroke-width:0.46683359px;stroke-linecap:butt;stroke-linejoin:miter;stroke-opacity:1" />
    <path
       style="fill:none;stroke:#000000;stroke-width:0.66721487;stroke-linecap:butt;stroke-linejoin:miter;stroke-miterlimit:4;stroke-opacity:1;stroke-dasharray:none;marker-end:url(#Arrow1Mend)"
       d="m 24.541924,596.95861 0,-397.98871"
       id="path3127"
       inkscape:connector-curvature="0"
       sodipodi:nodetypes="cc" />
    <g
       id="g4153"
       transform="matrix(-1,0,0,1,168.34375,0)">
      <path
         sodipodi:type="arc"
         style="fill:#000000;fill-rule:evenodd;stroke:#000000;stroke-width:1px;stroke-linecap:butt;stroke-linejoin:miter;stroke-opacity:1"
         id="path3103"
         sodipodi:cx="45"
         sodipodi:cy="352.36218"
         sodipodi:rx="5"
         sodipodi:ry="5"
         d="m 50,352.36218 c 0,2.76143 -2.238576,5 -5,5 -2.761424,0 -5,-2.23857 -5,-5 0,-2.76142 2.238576,-5 5,-5 2.761424,0 5,2.23858 5,5 z"
         transform="matrix(-0.46683359,0,0,0.46683359,163.72301,225.16236)" />
      <path
         style="fill:none;stroke:#000000;stroke-width:0.66721487;stroke-linecap:butt;stroke-linejoin:miter;stroke-miterlimit:4;stroke-opacity:1;stroke-dasharray:none;marker-start:none;marker-end:url(#Arrow2Mend)"
         d="m 142.96507,390.95779 c -13.3443,0 -33.36075,0 -33.36075,-13.3443 0,-13.34429 0,-25.15028 0,-56.28697"
         id="path3105"
         inkscape:connector-curvature="0"
         sodipodi:nodetypes="czc" />
      <g
         inkscape:transform-center-y="-2.7"
         inkscape:transform-center-x="2.6999996"
         transform="matrix(-1.3344297,0,0,1.3344297,149.35786,4.925227)"
         id="g3109">
        <g
           transform="translate(-7.5,-2.5000004)"
           id="g3111">
          <path
             transform="translate(0,6)"
             inkscape:connector-curvature="0"
             id="path3113"
             d="m 10,212.36218 c 5,5 5,5 5,5"
             style="fill:none;stroke:#000000;stroke-width:0.40000001;stroke-linecap:butt;stroke-linejoin:miter;stroke-miterlimit:4;stroke-opacity:1;stroke-dasharray:none" />
          <path
             inkscape:connector-curvature="0"
             id="path3115"
             d="m 10,217.36218 2.5,-2.5 2.5,-2.5"
             style="fill:none;stroke:#000000;stroke-width:0.40000001;stroke-linecap:butt;stroke-linejoin:miter;stroke-miterlimit:4;stroke-opacity:1;stroke-dasharray:none"
             sodipodi:nodetypes="ccc"
             transform="translate(0,6)" />
        </g>
      </g>
      <path
         style="fill:none;stroke:#000000;stroke-width:0.26688594;stroke-linecap:butt;stroke-linejoin:miter;stroke-miterlimit:4;stroke-opacity:1;stroke-dasharray:0.80065782, 0.80065782;stroke-dashoffset:0;marker-end:url(#Arrow2Mend)"
         d="m 142.68571,296.3142 c 27.98598,36.84812 16.70809,63.17507 1.48932,91.20588"
         id="path3121"
         inkscape:connector-curvature="0"
         sodipodi:nodetypes="cc" />
      <path
         sodipodi:nodetypes="czc"
         inkscape:connector-curvature="0"
         id="path3129"
         d="m 144.4803,389.56883 c -13.3443,0 -33.36075,0 -33.36075,-13.3443 0,-13.34429 0,-23.25625 0,-54.39294"
         style="fill:none;stroke:#000000;stroke-width:0.66721487;stroke-linecap:butt;stroke-linejoin:miter;stroke-miterlimit:4;stroke-opacity:1;stroke-dasharray:none;marker-start:none;marker-end:url(#Arrow2Mend)" />
      <path
         sodipodi:nodetypes="cc"
         transform="translate(-62.634503,175.28127)"
         inkscape:connector-curvature="0"
         id="path3135"
         d="m 111.42857,124.55158 91.69906,-3.40368"
         style="fill:none;stroke:#000000;stroke-width:1px;stroke-linecap:butt;stroke-linejoin:miter;stroke-opacity:1;marker-end:url(#Arrow2Mend)" />
    </g>
    <g
       id="g4164"
       transform="translate(6.0821944,84)">
      <path
         transform="matrix(-0.46683359,0,0,0.46683359,163.72301,225.16236)"
         d="m 50,352.36218 c 0,2.76143 -2.238576,5 -5,5 -2.761424,0 -5,-2.23857 -5,-5 0,-2.76142 2.238576,-5 5,-5 2.761424,0 5,2.23858 5,5 z"
         sodipodi:ry="5"
         sodipodi:rx="5"
         sodipodi:cy="352.36218"
         sodipodi:cx="45"
         id="path4166"
         style="fill:#000000;fill-rule:evenodd;stroke:#000000;stroke-width:1px;stroke-linecap:butt;stroke-linejoin:miter;stroke-opacity:1"
         sodipodi:type="arc" />
      <path
         sodipodi:nodetypes="czc"
         inkscape:connector-curvature="0"
         id="path4168"
         d="m 142.96507,390.95779 c -13.3443,0 -33.36075,0 -33.36075,-13.3443 0,-13.34429 0,-25.15028 0,-56.28697"
         style="fill:none;stroke:#000000;stroke-width:0.66721487;stroke-linecap:butt;stroke-linejoin:miter;stroke-miterlimit:4;stroke-opacity:1;stroke-dasharray:none;marker-start:none;marker-end:url(#Arrow2Mend)" />
      <g
         id="g4170"
         transform="matrix(-1.3344297,0,0,1.3344297,149.35786,4.925227)"
         inkscape:transform-center-x="2.6999996"
         inkscape:transform-center-y="-2.7">
        <g
           id="g4172"
           transform="translate(-7.5,-2.5000004)">
          <path
             style="fill:none;stroke:#000000;stroke-width:0.40000001;stroke-linecap:butt;stroke-linejoin:miter;stroke-miterlimit:4;stroke-opacity:1;stroke-dasharray:none"
             d="m 10,212.36218 c 5,5 5,5 5,5"
             id="path4174"
             inkscape:connector-curvature="0"
             transform="translate(0,6)" />
          <path
             transform="translate(0,6)"
             sodipodi:nodetypes="ccc"
             style="fill:none;stroke:#000000;stroke-width:0.40000001;stroke-linecap:butt;stroke-linejoin:miter;stroke-miterlimit:4;stroke-opacity:1;stroke-dasharray:none"
             d="m 10,217.36218 2.5,-2.5 2.5,-2.5"
             id="path4176"
             inkscape:connector-curvature="0" />
        </g>
      </g>
      <path
         sodipodi:nodetypes="cc"
         inkscape:connector-curvature="0"
         id="path4178"
         d="m 142.68571,296.3142 c 27.98598,36.84812 16.70809,63.17507 1.48932,91.20588"
         style="fill:none;stroke:#000000;stroke-width:0.26688594;stroke-linecap:butt;stroke-linejoin:miter;stroke-miterlimit:4;stroke-opacity:1;stroke-dasharray:0.80065782, 0.80065782;stroke-dashoffset:0;marker-end:url(#Arrow2Mend)" />
      <path
         style="fill:none;stroke:#000000;stroke-width:0.66721487;stroke-linecap:butt;stroke-linejoin:miter;stroke-miterlimit:4;stroke-opacity:1;stroke-dasharray:none;marker-start:none;marker-end:url(#Arrow2Mend)"
         d="m 144.4803,389.56883 c -13.3443,0 -33.36075,0 -33.36075,-13.3443 0,-13.34429 0,-23.25625 0,-54.39294"
         id="path4180"
         inkscape:connector-curvature="0"
         sodipodi:nodetypes="czc" />
      <path
         style="fill:none;stroke:#000000;stroke-width:1px;stroke-linecap:butt;stroke-linejoin:miter;stroke-opacity:1;marker-end:url(#Arrow2Mend)"
         d="m 111.42857,124.55158 91.69906,-3.40368"
         id="path4182"
         inkscape:connector-curvature="0"
         transform="translate(-62.634503,175.28127)"
         sodipodi:nodetypes="cc" />
    </g>
    <g
       id="g4184"
       transform="matrix(-1,0,0,1,168.34375,168)">
      <path
         transform="matrix(-0.46683359,0,0,0.46683359,163.72301,225.16236)"
         d="m 50,352.36218 c 0,2.76143 -2.238576,5 -5,5 -2.761424,0 -5,-2.23857 -5,-5 0,-2.76142 2.238576,-5 5,-5 2.761424,0 5,2.23858 5,5 z"
         sodipodi:ry="5"
         sodipodi:rx="5"
         sodipodi:cy="352.36218"
         sodipodi:cx="45"
         id="path4186"
         style="fill:#000000;fill-rule:evenodd;stroke:#000000;stroke-width:1px;stroke-linecap:butt;stroke-linejoin:miter;stroke-opacity:1"
         sodipodi:type="arc" />
      <path
         sodipodi:nodetypes="czc"
         inkscape:connector-curvature="0"
         id="path4188"
         d="m 142.96507,390.95779 c -13.3443,0 -33.36075,0 -33.36075,-13.3443 0,-13.34429 0,-25.15028 0,-56.28697"
         style="fill:none;stroke:#000000;stroke-width:0.66721487;stroke-linecap:butt;stroke-linejoin:miter;stroke-miterlimit:4;stroke-opacity:1;stroke-dasharray:none;marker-start:none;marker-end:url(#Arrow2Mend)" />
      <g
         id="g4190"
         transform="matrix(-1.3344297,0,0,1.3344297,149.35786,4.925227)"
         inkscape:transform-center-x="2.6999996"
         inkscape:transform-center-y="-2.7">
        <g
           id="g4192"
           transform="translate(-7.5,-2.5000004)">
          <path
             style="fill:none;stroke:#000000;stroke-width:0.40000001;stroke-linecap:butt;stroke-linejoin:miter;stroke-miterlimit:4;stroke-opacity:1;stroke-dasharray:none"
             d="m 10,212.36218 c 5,5 5,5 5,5"
             id="path4194"
             inkscape:connector-curvature="0"
             transform="translate(0,6)" />
          <path
             transform="translate(0,6)"
             sodipodi:nodetypes="ccc"
             style="fill:none;stroke:#000000;stroke-width:0.40000001;stroke-linecap:butt;stroke-linejoin:miter;stroke-miterlimit:4;stroke-opacity:1;stroke-dasharray:none"
             d="m 10,217.36218 2.5,-2.5 2.5,-2.5"
             id="path4196"
             inkscape:connector-curvature="0" />
        </g>
      </g>
      <path
         sodipodi:nodetypes="cc"
         inkscape:connector-curvature="0"
         id="path4198"
         d="m 142.68571,296.3142 c 27.98598,36.84812 16.70809,63.17507 1.48932,91.20588"
         style="fill:none;stroke:#000000;stroke-width:0.26688594;stroke-linecap:butt;stroke-linejoin:miter;stroke-miterlimit:4;stroke-opacity:1;stroke-dasharray:0.80065782, 0.80065782;stroke-dashoffset:0;marker-end:url(#Arrow2Mend)" />
      <path
         style="fill:none;stroke:#000000;stroke-width:0.66721487;stroke-linecap:butt;stroke-linejoin:miter;stroke-miterlimit:4;stroke-opacity:1;stroke-dasharray:none;marker-start:none;marker-end:url(#Arrow2Mend)"
         d="m 144.4803,389.56883 c -13.3443,0 -33.36075,0 -33.36075,-13.3443 0,-13.34429 0,-23.25625 0,-54.39294"
         id="path4200"
         inkscape:connector-curvature="0"
         sodipodi:nodetypes="czc" />
      <path
         style="fill:none;stroke:#000000;stroke-width:1px;stroke-linecap:butt;stroke-linejoin:miter;stroke-opacity:1;marker-end:url(#Arrow2Mend)"
         d="m 111.42857,124.55158 91.69906,-3.40368"
         id="path4202"
         inkscape:connector-curvature="0"
         transform="translate(-62.634503,175.28127)"
         sodipodi:nodetypes="cc" />
    </g>
    <text
       xml:space="preserve"
       style="font-size:12px;font-style:italic;font-weight:normal;line-height:125%;letter-spacing:0px;word-spacing:0px;fill:#000000;fill-opacity:1;stroke:none;font-family:verd;-inkscape-font-specification:verd"
       x="158.53802"
       y="592.89935"
       id="text4224"
       sodipodi:linespacing="125%"><tspan
         sodipodi:role="line"
         id="tspan4226"
         x="158.53802"
         y="592.89935">on</tspan></text>
    <text
       sodipodi:linespacing="125%"
       id="text4228"
       y="592.89935"
       x="34.538017"
       style="font-size:12px;font-style:italic;font-weight:normal;line-height:125%;letter-spacing:0px;word-spacing:0px;fill:#000000;fill-opacity:1;stroke:none;font-family:verd;-inkscape-font-specification:verd"
       xml:space="preserve"><tspan
         y="592.89935"
         x="34.538017"
         id="tspan4230"
         sodipodi:role="line">on</tspan></text>
  </g>
</svg>
